<svg width="1400" height="900" viewBox="0 0 1400 900" fill="none" xmlns="http://www.w3.org/2000/svg">
  <rect width="1400" height="900" fill="#071016"/>
  <rect width="1400" height="900" fill="url(#bg)"/>
  <g opacity=".55">
    <path d="M110 120h1180M110 220h1180M110 320h1180M110 420h1180M110 520h1180M110 620h1180M110 720h1180" stroke="#1C4252" stroke-width="1"/>
    <path d="M180 80v720M360 80v720M540 80v720M720 80v720M900 80v720M1080 80v720M1260 80v720" stroke="#15313D" stroke-width="1"/>
  </g>
  <rect x="92" y="72" width="1216" height="756" rx="30" fill="#09141B" stroke="#2B6E82" stroke-opacity=".55"/>
  <rect x="132" y="118" width="756" height="420" rx="24" fill="#0D1D26" stroke="#2FD8FF" stroke-opacity=".42"/>
  <rect x="164" y="154" width="692" height="330" rx="18" fill="#05090D"/>
  <path d="M452 248l154 92-154 92V248Z" fill="#2FD8FF" fill-opacity=".18" stroke="#2FD8FF" stroke-opacity=".7"/>
  <rect x="924" y="118" width="344" height="420" rx="24" fill="#0B1820" stroke="#285D6F"/>
  <rect x="956" y="154" width="280" height="42" rx="12" fill="#12303C"/>
  <rect x="956" y="220" width="212" height="42" rx="12" fill="#0F2832"/>
  <rect x="956" y="286" width="248" height="42" rx="12" fill="#12303C"/>
  <rect x="956" y="352" width="186" height="42" rx="12" fill="#0F2832"/>
  <rect x="956" y="418" width="260" height="42" rx="12" fill="#12303C"/>
  <g>
    <rect x="132" y="586" width="1136" height="184" rx="24" fill="#081118" stroke="#2B6E82" stroke-opacity=".45"/>
    <path d="M180 635h1036" stroke="#2FD8FF" stroke-opacity=".18"/>
    <path d="M180 692h1036" stroke="#2FD8FF" stroke-opacity=".18"/>
    <rect x="180" y="620" width="212" height="34" rx="9" fill="#2FD8FF" fill-opacity=".28"/>
    <rect x="410" y="620" width="330" height="34" rx="9" fill="#2FD8FF" fill-opacity=".18"/>
    <rect x="760" y="620" width="180" height="34" rx="9" fill="#2FD8FF" fill-opacity=".35"/>
    <rect x="960" y="620" width="220" height="34" rx="9" fill="#2FD8FF" fill-opacity=".16"/>
    <rect x="220" y="682" width="250" height="38" rx="10" fill="#F4D58D" fill-opacity=".18" stroke="#F4D58D" stroke-opacity=".25"/>
    <rect x="500" y="682" width="190" height="38" rx="10" fill="#2FD8FF" fill-opacity=".16"/>
    <rect x="720" y="682" width="286" height="38" rx="10" fill="#F4D58D" fill-opacity=".13"/>
  </g>
  <text x="132" y="58" fill="#8ADFFF" font-family="Inter, Arial" font-size="22" letter-spacing="6">AI VIDEO WORKBENCH</text>
  <text x="132" y="810" fill="#F4D58D" font-family="Inter, Arial" font-size="28" letter-spacing="3">TIMELINE / SUBTITLE / AUTO MIXING</text>
  <defs>
    <radialGradient id="bg" cx="0" cy="0" r="1" gradientUnits="userSpaceOnUse" gradientTransform="translate(950 250) rotate(136) scale(650 520)">
      <stop stop-color="#16495B"/>
      <stop offset=".45" stop-color="#071016" stop-opacity=".82"/>
      <stop offset="1" stop-color="#071016" stop-opacity="0"/>
    </radialGradient>
  </defs>
</svg>
