<svg width="1400" height="900" viewBox="0 0 1400 900" fill="none" xmlns="http://www.w3.org/2000/svg">
  <rect width="1400" height="900" fill="#10100D"/>
  <rect width="1400" height="900" fill="url(#warm)"/>
  <rect x="90" y="74" width="1220" height="752" rx="32" fill="#F3EFE5" fill-opacity=".06" stroke="#D8B36B" stroke-opacity=".28"/>
  <rect x="128" y="118" width="310" height="664" rx="24" fill="#181711" stroke="#D8B36B" stroke-opacity=".18"/>
  <rect x="164" y="162" width="190" height="22" rx="11" fill="#EECF8A" fill-opacity=".55"/>
  <rect x="164" y="220" width="226" height="16" rx="8" fill="#F3EFE5" fill-opacity=".18"/>
  <rect x="164" y="262" width="190" height="16" rx="8" fill="#F3EFE5" fill-opacity=".13"/>
  <rect x="164" y="330" width="228" height="90" rx="18" fill="#E8B86D" fill-opacity=".13" stroke="#E8B86D" stroke-opacity=".25"/>
  <rect x="164" y="446" width="228" height="90" rx="18" fill="#B8794C" fill-opacity=".13" stroke="#E8B86D" stroke-opacity=".18"/>
  <rect x="164" y="562" width="228" height="90" rx="18" fill="#E8B86D" fill-opacity=".1" stroke="#E8B86D" stroke-opacity=".16"/>
  <g>
    <rect x="484" y="126" width="252" height="296" rx="28" fill="#191712" stroke="#E8B86D" stroke-opacity=".24"/>
    <rect x="516" y="162" width="188" height="132" rx="18" fill="#D8B36B" fill-opacity=".18"/>
    <rect x="516" y="322" width="148" height="14" rx="7" fill="#F4D58D" fill-opacity=".55"/>
    <rect x="516" y="352" width="184" height="12" rx="6" fill="#F3EFE5" fill-opacity=".2"/>
    <rect x="516" y="382" width="82" height="18" rx="9" fill="#E8B86D" fill-opacity=".26"/>
    <rect x="628" y="382" width="72" height="18" rx="9" fill="#E8B86D" fill-opacity=".18"/>
  </g>
  <g opacity=".92">
    <rect x="788" y="126" width="252" height="296" rx="28" fill="#191712" stroke="#E8B86D" stroke-opacity=".24"/>
    <rect x="820" y="162" width="188" height="132" rx="18" fill="#E8B86D" fill-opacity=".13"/>
    <rect x="820" y="322" width="166" height="14" rx="7" fill="#F4D58D" fill-opacity=".5"/>
    <rect x="820" y="352" width="140" height="12" rx="6" fill="#F3EFE5" fill-opacity=".2"/>
    <rect x="820" y="382" width="88" height="18" rx="9" fill="#E8B86D" fill-opacity=".24"/>
    <rect x="936" y="382" width="54" height="18" rx="9" fill="#E8B86D" fill-opacity=".16"/>
  </g>
  <g opacity=".82">
    <rect x="1092" y="126" width="178" height="296" rx="28" fill="#191712" stroke="#E8B86D" stroke-opacity=".2"/>
    <rect x="1120" y="162" width="122" height="132" rx="18" fill="#E8B86D" fill-opacity=".12"/>
    <rect x="1120" y="322" width="104" height="14" rx="7" fill="#F4D58D" fill-opacity=".42"/>
    <rect x="1120" y="352" width="92" height="12" rx="6" fill="#F3EFE5" fill-opacity=".16"/>
  </g>
  <rect x="484" y="486" width="786" height="246" rx="28" fill="#171611" stroke="#D8B36B" stroke-opacity=".2"/>
  <path d="M538 660c94-154 214 24 324-84 80-78 166-70 276 8" stroke="#E8B86D" stroke-opacity=".55" stroke-width="4"/>
  <circle cx="538" cy="660" r="9" fill="#F4D58D"/>
  <circle cx="862" cy="576" r="9" fill="#F4D58D"/>
  <circle cx="1138" cy="584" r="9" fill="#F4D58D"/>
  <rect x="528" y="528" width="150" height="18" rx="9" fill="#F4D58D" fill-opacity=".45"/>
  <rect x="528" y="562" width="214" height="12" rx="6" fill="#F3EFE5" fill-opacity=".14"/>
  <text x="128" y="58" fill="#F4D58D" font-family="Inter, Arial" font-size="22" letter-spacing="6">CONTENT WORKFLOW DASHBOARD</text>
  <text x="484" y="780" fill="#E8B86D" font-family="Inter, Arial" font-size="28" letter-spacing="3">BATCH COPY / COVER PROMPT / TAG SYSTEM</text>
  <defs>
    <radialGradient id="warm" cx="0" cy="0" r="1" gradientUnits="userSpaceOnUse" gradientTransform="translate(850 260) rotate(130) scale(650 500)">
      <stop stop-color="#5A3A1A"/>
      <stop offset=".52" stop-color="#10100D" stop-opacity=".84"/>
      <stop offset="1" stop-color="#10100D" stop-opacity="0"/>
    </radialGradient>
  </defs>
</svg>
